HIERARCHY
ROOT Hips
{
  OFFSET 13.6774 106.653 -34.4427
  CHANNELS 6 Xposition Yposition Zposition Zrotation Xrotation Yrotation
  JOINT ToSpine
  {
    OFFSET -2.69724 7.43032 -0.144315
    CHANNELS 3 Zrotation Xrotation Yrotation
    JOINT Spine
    {
      OFFSET -0.0310711 10.7595 1.96963
      CHANNELS 3 Zrotation Xrotation Yrotation
      JOINT Spine1
      {
        OFFSET 19.9056 3.91189 0.764692
        CHANNELS 3 Zrotation Xrotation Yrotation
        JOINT Neck
        {
          OFFSET 25.9749 7.03908 -0.130764
          CHANNELS 3 Zrotation Xrotation Yrotation
          JOINT Head
          {
            OFFSET 9.52751 0.295786 -0.907742
            CHANNELS 3 Zrotation Xrotation Yrotation
            End Site
            {
              OFFSET 16.4037 0.713936 2.7358
            }
          }
        }
        JOINT LeftShoulder
        {
          OFFSET 17.7449 4.33886 11.7777
          CHANNELS 3 Zrotation Xrotation Yrotation
          JOINT LeftArm
          {
            OFFSET 0.911315 1.27913 9.80584
            CHANNELS 3 Zrotation Xrotation Yrotation
            JOINT LeftForeArm
            {
              OFFSET 28.6126 1.18197 -3.53199
              CHANNELS 3 Zrotation Xrotation Yrotation
              JOINT LeftHand
              {
                OFFSET 27.5088 0.0218783 0.327423
                CHANNELS 3 Zrotation Xrotation Yrotation
                End Site
                {
                  OFFSET 18.6038 -0.000155887 0.382096
                }
              }
            }
          }
        }
        JOINT RightShoulder
        {
          OFFSET 17.1009 2.89543 -12.2328
          CHANNELS 3 Zrotation Xrotation Yrotation
          JOINT RightArm
          {
            OFFSET 1.4228 0.178766 -10.211
            CHANNELS 3 Zrotation Xrotation Yrotation
            JOINT RightForeArm
            {
              OFFSET 28.733 1.87905 2.64907
              CHANNELS 3 Zrotation Xrotation Yrotation
              JOINT RightHand
              {
                OFFSET 27.4588 0.290562 -0.101845
                CHANNELS 3 Zrotation Xrotation Yrotation
                End Site
                {
                  OFFSET 17.8396 -0.255518 -0.000602873
                }
              }
            }
          }
        }
      }
    }
  }
  JOINT LeftUpLeg
  {
    OFFSET -5.61296 -2.22332 -10.2353
    CHANNELS 3 Zrotation Xrotation Yrotation
    JOINT LeftLeg
    {
      OFFSET 2.56703 -44.7417 -7.93097
      CHANNELS 3 Zrotation Xrotation Yrotation
      JOINT LeftFoot
      {
        OFFSET 3.16933 -46.5642 -3.96578
        CHANNELS 3 Zrotation Xrotation Yrotation
        JOINT LeftToeBase
        {
          OFFSET 0.346054 -6.02161 12.8035
          CHANNELS 3 Zrotation Xrotation Yrotation
          End Site
          {
            OFFSET 0.134235 -1.35082 5.13018
          }
        }
      }
    }
  }
  JOINT RightUpLeg
  {
    OFFSET -5.7928 -1.72406 10.6446
    CHANNELS 3 Zrotation Xrotation Yrotation
    JOINT RightLeg
    {
      OFFSET -2.57161 -44.7178 -7.85259
      CHANNELS 3 Zrotation Xrotation Yrotation
      JOINT RightFoot
      {
        OFFSET -3.10148 -46.5936 -4.03391
        CHANNELS 3 Zrotation Xrotation Yrotation
        JOINT RightToeBase
        {
          OFFSET -0.0828122 -6.13587 12.8035
          CHANNELS 3 Zrotation Xrotation Yrotation
          End Site
          {
            OFFSET -0.131328 -1.35082 5.13018
          }
        }
      }
    }
  }
}
MOTION
Frames: 10
Frame Time: 0.03333333333333333
0.0000 93.1000 0.0000 73.6103 -25.5704 -1.1371 -70.8485 -0.1760 88.0203 105.6810 72.9774 -21.0204 2.2895 21.2609 11.0209 -125.4297 33.1101 156.1503 160.4986 74.1900 -131.6648 1.4470 -6.8798 -16.8293 -54.8709 35.4289 -107.6742 6.2157 -5.2782 -126.7074 -0.2478 -0.5824 0.1604 -2.2723 4.7818 45.9601 -101.2132 -3.3534 74.2794 4.1655 -6.7038 36.0397 0.3322 -1.4389 0.1457 -37.2942 19.0757 90.1089 -9.4697 67.4837 -4.4132 -0.1465 -22.8103 -1.7458 5.6717 -15.2375 17.6647 -40.8486 -23.6310 76.4104 0.6284 36.0534 -3.7144 -1.1458 6.2399 -0.4105 1.6727 -12.3235 2.1264 
0.0000 93.1000 0.0000 74.5489 -26.0346 -0.1177 -70.8624 -0.1054 88.0396 105.5434 73.1092 -20.7309 2.2968 21.1784 11.1093 -124.7292 32.9099 157.1568 159.8103 74.7837 -131.0511 1.1157 -6.8359 -16.6155 -54.7060 35.9287 -108.2439 6.0405 -4.7519 -126.0899 -0.0929 -0.2731 -0.3680 -2.1913 4.8983 46.0895 -100.5031 -2.8572 74.9273 4.0796 -6.9581 35.7590 -0.1234 -1.0492 -0.0360 -36.8582 18.9053 89.6397 -9.4741 68.5895 -4.9044 0.1987 -21.5738 -2.0740 6.1227 -15.7413 18.9719 -41.8835 -23.4113 75.6893 0.7332 35.7435 -3.3789 -0.8012 6.5008 -0.3166 0.6653 -11.2455 3.3417 
0.0000 93.1000 0.0000 74.4781 -26.2750 -1.2283 -70.8639 -0.1379 88.0526 106.8811 72.9994 -20.4991 2.7253 21.2491 10.7955 -125.7145 32.8607 157.3963 161.0282 74.9175 -131.9467 1.3636 -6.5369 -16.4420 -54.0473 35.7875 -108.4247 5.5022 -4.4541 -125.3117 -0.1660 -0.4264 -0.3283 -2.1551 4.7324 46.0182 -100.1874 -3.4832 74.8605 4.9431 -7.1504 36.2679 0.1423 -1.2554 0.0281 -36.7647 18.9635 89.5817 -10.2661 68.3394 -4.5664 0.0472 -21.6674 -1.9321 5.8329 -15.4663 19.9157 -41.8225 -23.4998 76.8279 1.8594 35.8345 -2.9813 -0.5659 6.1616 -0.3470 0.9016 -12.4963 1.6927 
0.0000 93.1000 0.0000 74.0214 -25.9242 -1.7168 -70.8684 -0.0360 88.0518 105.2627 73.8856 -20.0399 2.9804 21.0720 11.0081 -124.7363 33.0180 156.3078 161.2632 74.9821 -131.2183 0.8672 -6.9203 -17.1849 -53.9032 35.1541 -109.2202 5.1626 -4.7379 -125.4763 0.0708 0.1500 -0.4591 -2.1682 4.5555 46.1471 -100.5100 -2.1683 74.0140 5.1938 -6.7287 36.3838 -0.5792 -0.6752 -0.3568 -36.5662 18.9553 89.4879 -10.4161 68.3548 -6.1119 0.2862 -22.5840 -2.6938 6.4934 -16.5370 21.5930 -42.1190 -23.2849 77.2764 2.1330 35.6569 -4.2388 -1.1296 5.9702 -0.0514 1.1765 -12.4167 1.6400 
0.0000 93.1000 0.0000 74.2173 -26.0750 -0.4752 -70.8877 -0.1584 88.0853 104.5273 74.0309 -19.1699 2.7428 21.2068 9.8896 -125.2427 33.0759 156.5054 162.5599 75.3722 -131.9198 1.5956 -7.1730 -17.1315 -53.3676 35.0201 -109.3621 4.0597 -3.9345 -125.3126 -0.1169 -0.5180 -0.0078 -2.1656 4.8078 46.3315 -100.7357 -1.1000 74.3159 4.4702 -6.7338 37.4431 0.1617 -1.3926 0.2429 -36.8369 18.8607 90.8473 -9.5520 68.0010 -5.0208 0.6117 -22.5916 -2.1599 6.2192 -15.1882 18.3994 -41.8834 -23.2017 77.3679 -1.2106 35.9338 -5.2769 -1.0308 6.0573 -0.5619 1.1280 -11.6078 3.1919 
0.0000 93.1000 0.0000 74.7724 -26.1503 -2.1006 -70.8840 -0.1028 88.0803 104.7385 73.8898 -19.7770 2.3285 21.3124 10.4810 -124.7090 33.2674 154.8054 163.4384 75.6858 -133.0603 1.1654 -7.8079 -17.2110 -53.0871 35.3079 -111.7615 3.6528 -3.1738 -124.3019 -0.2530 -0.2276 -0.1284 -2.2394 5.0834 46.4669 -102.1049 -1.4594 73.9492 5.0146 -8.0213 40.8206 -0.0099 -1.0939 -0.1269 -36.9027 18.9463 90.7764 -9.1236 67.6230 -5.2014 0.1294 -22.6747 -2.4278 6.1088 -15.0228 19.4240 -40.8085 -23.1739 78.8531 0.5763 37.3347 -4.6500 -0.1618 6.5375 -0.4378 0.9054 -13.2933 2.8744 
0.0000 93.1000 0.0000 74.6709 -25.9005 -1.1293 -70.8843 -0.1060 88.0914 104.9280 74.1044 -20.8061 2.5547 21.5038 11.0326 -124.7539 33.2362 155.6533 162.5263 75.5915 -129.5758 1.2289 -7.6649 -17.1705 -52.6445 35.0172 -112.7681 3.7920 -3.7608 -122.1175 -0.1282 -0.2510 -0.3348 -2.2369 5.3858 46.2100 -104.2529 -0.5694 73.2683 6.4907 -7.8061 45.1238 0.1415 -1.1116 -0.0712 -36.5749 19.3402 91.0004 -10.4816 67.7936 -6.9379 -0.4777 -21.8181 -2.2369 6.5056 -16.2551 21.7275 -39.4898 -23.1417 79.6517 1.0610 39.3531 -4.3524 -0.8623 6.8553 -0.4740 0.9720 -14.4844 3.6998 
0.0000 93.1000 0.0000 74.4114 -26.2665 -2.7973 -70.8650 -0.0906 88.0739 105.0222 74.0228 -20.7424 2.6759 21.4158 11.8046 -123.5165 33.7396 154.9580 161.4326 75.1087 -129.5307 1.1438 -7.9525 -17.3357 -53.0997 33.9344 -116.6640 5.2916 -4.5574 -118.3685 0.0410 -0.1734 -0.2536 -2.2511 5.2515 45.0125 -107.7118 -0.4924 73.9120 6.7381 -6.3765 50.2696 -0.0405 -0.9941 0.1064 -37.3496 20.2532 90.8664 -9.4448 67.5510 -6.5456 -0.2420 -21.2354 -2.3589 6.7256 -16.6843 21.1314 -37.2984 -22.2818 82.5461 1.4927 42.0837 -0.2960 -1.7211 7.0273 -0.3663 0.5503 -14.7181 2.8504 
0.0000 93.1000 0.0000 73.0804 -27.0619 -1.4696 -70.8602 -0.1267 88.0621 102.9616 74.1467 -19.7962 2.8229 20.9287 11.9703 -123.1457 33.6243 155.8867 161.0231 74.8954 -128.4863 1.2900 -8.9110 -17.2583 -55.5716 31.5392 -121.3282 8.0067 -5.4886 -114.4097 -0.1953 -0.4004 0.2588 -2.1854 5.2741 43.9316 -110.9910 -0.7864 77.1807 3.9624 -3.9002 54.7989 0.0373 -1.2459 0.1217 -37.8041 20.9532 90.5341 -8.7897 67.2042 -6.0606 -0.4987 -21.2873 -2.0716 6.5450 -16.3322 19.8253 -36.2631 -21.9288 84.5170 2.3765 43.5048 3.8214 -4.3763 8.7043 -0.1855 1.1746 -16.4689 1.7235 
0.0000 93.1000 0.0000 73.3754 -27.1592 -2.5668 -70.8747 -0.0573 88.0474 103.0160 74.3330 -18.7214 3.4796 20.4924 10.9875 -123.1730 33.6852 157.7041 159.8098 74.8809 -128.5999 0.8090 -9.8931 -17.4221 -58.8248 28.8296 -126.7885 10.5684 -5.5079 -110.4271 -0.1664 -0.1064 -0.0247 -2.3138 5.4225 43.7242 -114.8987 0.6990 80.4369 2.3352 -1.7428 59.6030 0.1319 -0.8925 -0.2336 -38.4935 21.1351 90.8588 -8.4599 65.6189 -6.7810 -1.2438 -20.4318 -2.2791 6.6745 -17.0038 20.0187 -35.0275 -22.3614 86.5505 2.4775 40.0986 4.1341 -4.0073 10.1766 -0.1410 0.8487 -13.9247 0.9741 
